<mxfile host="app.diagrams.net" modified="2024-01-23T23:49:22.723Z" agent="Mozilla/5.0 (Macintosh; Intel Mac OS X 10_15_7) AppleWebKit/537.36 (KHTML, like Gecko) Chrome/120.0.0.0 Safari/537.36" version="23.0.0" etag="4wQoBANVnDuW5yu9TQoz" type="github">
  <diagram name="페이지-1" id="BA0VtGjVg5EDuTxFGCQr">
    <mxGraphModel>
      <root>
        <mxCell id="0" />
        <mxCell id="1" parent="0" />
      </root>
    </mxGraphModel>
  </diagram>
</mxfile>
